<?xml version="1.0" encoding="utf-8"?>
<!-- Generator: Adobe Illustrator 16.0.4, SVG Export Plug-In . SVG Version: 6.00 Build 0)  -->
<!DOCTYPE svg PUBLIC "-//W3C//DTD SVG 1.1//EN" "http://www.w3.org/Graphics/SVG/1.1/DTD/svg11.dtd">
<svg version="1.1" id="Layer_1" xmlns="http://www.w3.org/2000/svg" xmlns:xlink="http://www.w3.org/1999/xlink" x="0px" y="0px"
	 width="2000px" height="2000px" viewBox="0 0 2000 2000" enable-background="new 0 0 2000 2000" xml:space="preserve">
<path fill="#333333" d="M1000,0.024c-552.272,0-999.977,447.705-999.977,999.977S447.728,1999.979,1000,1999.979
	c552.271,0,999.977-447.705,999.977-999.978S1552.271,0.024,1000,0.024z M1738.111,862.279
	c-32.537,84.666-65.075,169.333-97.612,253.999c-18.918,49.225-37.835,98.448-56.752,147.674
	c-5.62,14.624-12.606,26.37-26.567,34.549c-9.017,5.229-18.741,7.861-29.178,7.893c-26.341,0-48.098-17.757-55.745-42.44
	c-8.223-26.543-16.446-53.086-24.67-79.629c-24.835-80.164-49.672-160.329-74.507-240.494
	c-19.194,56.258-38.389,112.517-57.582,168.776c-17.212,50.449-34.424,100.898-51.636,151.348
	c-8.38,24.56-28.847,42.44-55.745,42.44c-15.272,0-30.085-6.14-40.878-16.932c-7.165-7.213-12.12-15.717-14.867-25.51
	c-12.842-31.19-25.687-62.381-38.529-93.571c-34.639-84.124-69.278-168.247-103.917-252.37c-3.178-7.716-6.354-15.432-9.532-23.148
	c-0.189,0.371-0.378,0.742-0.567,1.112c-41.668,81.734-83.335,163.468-125.003,245.2c-23.21,45.529-46.421,91.059-69.632,136.588
	c-19.618,38.481-79.762,36.824-99.834,0c-21.006-38.533-42.01-77.066-63.014-115.6c-44.037-80.788-88.075-161.576-132.111-242.365
	c-5.515-10.117-11.03-20.234-16.545-30.352c-34.412,81.251-68.823,162.502-103.235,243.753
	c-20.41,48.188-40.819,96.376-61.229,144.563c-5.481,12.944-21.656,23.021-34.549,26.567c-14.921,4.104-31.194,1.993-44.546-5.828
	c-12.923-7.57-22.592-20.099-26.567-34.549c-2.753-10.245-2.753-20.491,0-30.736c1.943-4.604,3.885-9.206,5.828-13.81
	c13.428-31.704,26.855-63.408,40.283-95.112c35.535-83.903,71.07-167.805,106.605-251.708
	c20.409-48.188,40.818-96.376,61.228-144.563c5.139-8.688,12.052-15.601,20.739-20.739c9.017-5.229,18.743-7.86,29.178-7.894
	c19.895,0,40.254,10.905,49.917,28.633c21.005,38.532,42.009,77.065,63.013,115.599c44.037,80.788,88.075,161.577,132.112,242.365
	c7.046,12.927,14.093,25.854,21.139,38.78c2.542-4.985,5.083-9.972,7.625-14.958c41.668-81.733,83.336-163.467,125.003-245.199
	c23.21-45.529,46.421-91.06,69.632-136.588c11.673-22.899,41.395-33.14,65.285-26.567c9.793,2.747,18.297,7.702,25.51,14.867
	c7.164,7.214,12.12,15.717,14.867,25.51c12.842,31.191,25.686,62.382,38.528,93.572c34.279,83.247,68.557,166.494,102.835,249.741
	c21.831-63.988,43.663-127.978,65.494-191.967c17.213-50.448,34.424-100.897,51.637-151.347
	c8.38-24.562,28.846-42.442,55.744-42.442c26.342,0,48.099,17.759,55.745,42.442c8.224,26.543,16.446,53.086,24.671,79.629
	c25.934,83.711,51.869,167.424,77.804,251.135c23.454-61.03,46.908-122.061,70.361-183.091
	c18.918-49.225,37.835-98.449,56.752-147.674c5.62-14.624,12.606-26.371,26.567-34.55c13.353-7.822,29.625-9.933,44.546-5.828
	c14.45,3.975,26.98,13.644,34.549,26.567c7.194,12.279,11.132,30.748,5.828,44.546
	C1761.096,802.471,1749.604,832.375,1738.111,862.279z"/>
</svg>
